{
	"asset":{
		"generator":"Khronos glTF Blender I/O v4.4.55",
		"version":"2.0"
	},
	"extensionsUsed":[
		"KHR_materials_specular"
	],
	"scene":0,
	"scenes":[
		{
			"name":"Scene",
			"nodes":[
				0,
				1,
				2,
				3,
				4,
				5,
				6
			]
		}
	],
	"nodes":[
		{
			"mesh":0,
			"name":"Mesh87_______Vicky______10_0",
			"rotation":[
				0,
				-0.9941680431365967,
				0,
				0.10784229636192322
			],
			"scale":[
				0.010000000707805157,
				0.010000000707805157,
				0.009999999776482582
			],
			"translation":[
				52.39063262939453,
				-16.804109573364258,
				-44.96263122558594
			]
		},
		{
			"mesh":1,
			"name":"Mesh86_______Vicky______10_0",
			"rotation":[
				0,
				-0.9941680431365967,
				0,
				0.10784229636192322
			],
			"scale":[
				0.010000000707805157,
				0.010000000707805157,
				0.009999999776482582
			],
			"translation":[
				52.39063262939453,
				-16.804109573364258,
				-44.96263122558594
			]
		},
		{
			"mesh":2,
			"name":"Mesh86_______Vicky______50_0",
			"rotation":[
				0,
				-0.9941680431365967,
				0,
				0.10784229636192322
			],
			"scale":[
				0.010000000707805157,
				0.010000000707805157,
				0.009999999776482582
			],
			"translation":[
				52.39063262939453,
				-16.804109573364258,
				-44.96263122558594
			]
		},
		{
			"mesh":3,
			"name":"Mesh88_______Vicky______50_0",
			"rotation":[
				0,
				-0.9941680431365967,
				0,
				0.10784229636192322
			],
			"scale":[
				0.010000000707805157,
				0.010000000707805157,
				0.009999999776482582
			],
			"translation":[
				52.39063262939453,
				-16.804109573364258,
				-44.96263122558594
			]
		},
		{
			"mesh":4,
			"name":"Mesh89_______Vicky______50_0",
			"rotation":[
				0,
				-0.9941680431365967,
				0,
				0.10784229636192322
			],
			"scale":[
				0.010000000707805157,
				0.010000000707805157,
				0.009999999776482582
			],
			"translation":[
				52.39063262939453,
				-16.804109573364258,
				-44.96263122558594
			]
		},
		{
			"mesh":5,
			"name":"Mesh90_wire_1_0",
			"rotation":[
				0,
				-0.9941680431365967,
				0,
				0.10784229636192322
			],
			"scale":[
				0.010000000707805157,
				0.010000000707805157,
				0.009999999776482582
			],
			"translation":[
				52.39063262939453,
				-16.804109573364258,
				-44.96263122558594
			]
		},
		{
			"mesh":6,
			"name":"Mesh91_Generic_3_0",
			"rotation":[
				0,
				-0.9941680431365967,
				0,
				0.10784229636192322
			],
			"scale":[
				0.010000000707805157,
				0.010000000707805157,
				0.009999999776482582
			],
			"translation":[
				52.39063262939453,
				-16.804109573364258,
				-44.96263122558594
			]
		}
	],
	"materials":[
		{
			"doubleSided":true,
			"extensions":{
				"KHR_materials_specular":{
					"specularTexture":{
						"index":0
					}
				}
			},
			"name":"Vicky______10",
			"pbrMetallicRoughness":{
				"baseColorTexture":{
					"index":1
				},
				"metallicFactor":0,
				"roughnessFactor":0.9302135109901428
			}
		},
		{
			"doubleSided":true,
			"extensions":{
				"KHR_materials_specular":{
					"specularTexture":{
						"index":2
					}
				}
			},
			"name":"Vicky______50",
			"pbrMetallicRoughness":{
				"baseColorTexture":{
					"index":3
				},
				"metallicFactor":0,
				"roughnessFactor":0.9302135109901428
			}
		},
		{
			"doubleSided":true,
			"name":"wire_1",
			"pbrMetallicRoughness":{
				"baseColorFactor":[
					0.09019610285758972,
					0.09019610285758972,
					0.09019610285758972,
					1
				],
				"metallicFactor":0,
				"roughnessFactor":0.9302135109901428
			}
		},
		{
			"doubleSided":true,
			"name":"Generic_3",
			"pbrMetallicRoughness":{
				"baseColorTexture":{
					"index":4
				},
				"metallicFactor":0,
				"roughnessFactor":0.9302135109901428
			}
		}
	],
	"meshes":[
		{
			"name":"Mesh87_______Vicky______10_0",
			"primitives":[
				{
					"attributes":{
						"POSITION":0,
						"NORMAL":1,
						"TEXCOORD_0":2,
						"TEXCOORD_1":3,
						"TEXCOORD_2":4,
						"TEXCOORD_3":5,
						"TEXCOORD_4":6,
						"TEXCOORD_5":7,
						"TEXCOORD_6":8,
						"TEXCOORD_7":9
					},
					"indices":10,
					"material":0
				}
			]
		},
		{
			"name":"Mesh86_______Vicky______10_0",
			"primitives":[
				{
					"attributes":{
						"POSITION":11,
						"NORMAL":12,
						"TEXCOORD_0":13,
						"TEXCOORD_1":14,
						"TEXCOORD_2":15,
						"TEXCOORD_3":16,
						"TEXCOORD_4":17,
						"TEXCOORD_5":18,
						"TEXCOORD_6":19,
						"TEXCOORD_7":20
					},
					"indices":21,
					"material":0
				}
			]
		},
		{
			"name":"Mesh86_______Vicky______50_0",
			"primitives":[
				{
					"attributes":{
						"POSITION":22,
						"NORMAL":23,
						"TEXCOORD_0":24,
						"TEXCOORD_1":25,
						"TEXCOORD_2":26,
						"TEXCOORD_3":27,
						"TEXCOORD_4":28,
						"TEXCOORD_5":29,
						"TEXCOORD_6":30,
						"TEXCOORD_7":31
					},
					"indices":32,
					"material":1
				}
			]
		},
		{
			"name":"Mesh88_______Vicky______50_0",
			"primitives":[
				{
					"attributes":{
						"POSITION":33,
						"NORMAL":34,
						"TEXCOORD_0":35,
						"TEXCOORD_1":36,
						"TEXCOORD_2":37,
						"TEXCOORD_3":38,
						"TEXCOORD_4":39,
						"TEXCOORD_5":40,
						"TEXCOORD_6":41,
						"TEXCOORD_7":42
					},
					"indices":43,
					"material":1
				}
			]
		},
		{
			"name":"Mesh89_______Vicky______50_0",
			"primitives":[
				{
					"attributes":{
						"POSITION":44,
						"NORMAL":45,
						"TEXCOORD_0":46,
						"TEXCOORD_1":47,
						"TEXCOORD_2":48,
						"TEXCOORD_3":49,
						"TEXCOORD_4":50,
						"TEXCOORD_5":51,
						"TEXCOORD_6":52,
						"TEXCOORD_7":53
					},
					"indices":54,
					"material":1
				}
			]
		},
		{
			"name":"Mesh90_wire_1_0",
			"primitives":[
				{
					"attributes":{
						"POSITION":55,
						"NORMAL":56,
						"TEXCOORD_0":57,
						"TEXCOORD_1":58,
						"TEXCOORD_2":59,
						"TEXCOORD_3":60,
						"TEXCOORD_4":61,
						"TEXCOORD_5":62,
						"TEXCOORD_6":63,
						"TEXCOORD_7":64
					},
					"indices":65,
					"material":2
				}
			]
		},
		{
			"name":"Mesh91_Generic_3_0",
			"primitives":[
				{
					"attributes":{
						"POSITION":66,
						"NORMAL":67,
						"TEXCOORD_0":68,
						"TEXCOORD_1":69,
						"TEXCOORD_2":70,
						"TEXCOORD_3":71,
						"TEXCOORD_4":72,
						"TEXCOORD_5":73,
						"TEXCOORD_6":74,
						"TEXCOORD_7":75
					},
					"indices":76,
					"material":3
				}
			]
		}
	],
	"textures":[
		{
			"sampler":0,
			"source":0
		},
		{
			"sampler":0,
			"source":1
		},
		{
			"sampler":0,
			"source":2
		},
		{
			"sampler":0,
			"source":3
		},
		{
			"sampler":0,
			"source":4
		}
	],
	"images":[
		{
			"mimeType":"image/png",
			"name":"Vicky______10_specularf0",
			"uri":"Vicky______10_specularf0.png"
		},
		{
			"mimeType":"image/jpeg",
			"name":"Vicky______10_baseColor",
			"uri":"Vicky______10_baseColor.jpg"
		},
		{
			"mimeType":"image/png",
			"name":"Vicky______50_specularf0",
			"uri":"Vicky______50_specularf0.png"
		},
		{
			"mimeType":"image/jpeg",
			"name":"Vicky______50_baseColor",
			"uri":"Vicky______50_baseColor.jpg"
		},
		{
			"mimeType":"image/jpeg",
			"name":"Generic_3_baseColor",
			"uri":"Generic_3_baseColor.jpg"
		}
	],
	"accessors":[
		{
			"bufferView":0,
			"componentType":5126,
			"count":54292,
			"max":[
				2264.86865234375,
				731.33642578125,
				-1520.43701171875
			],
			"min":[
				384.8455505371094,
				459.27056884765625,
				-3196.564208984375
			],
			"type":"VEC3"
		},
		{
			"bufferView":1,
			"componentType":5126,
			"count":54292,
			"type":"VEC3"
		},
		{
			"bufferView":2,
			"componentType":5126,
			"count":54292,
			"type":"VEC2"
		},
		{
			"bufferView":3,
			"componentType":5126,
			"count":54292,
			"type":"VEC2"
		},
		{
			"bufferView":4,
			"componentType":5126,
			"count":54292,
			"type":"VEC2"
		},
		{
			"bufferView":5,
			"componentType":5126,
			"count":54292,
			"type":"VEC2"
		},
		{
			"bufferView":6,
			"componentType":5126,
			"count":54292,
			"type":"VEC2"
		},
		{
			"bufferView":7,
			"componentType":5126,
			"count":54292,
			"type":"VEC2"
		},
		{
			"bufferView":8,
			"componentType":5126,
			"count":54292,
			"type":"VEC2"
		},
		{
			"bufferView":9,
			"componentType":5126,
			"count":54292,
			"type":"VEC2"
		},
		{
			"bufferView":10,
			"componentType":5123,
			"count":54342,
			"type":"SCALAR"
		},
		{
			"bufferView":11,
			"componentType":5126,
			"count":42551,
			"max":[
				2384.222412109375,
				829.4627075195312,
				-1479.5821533203125
			],
			"min":[
				1098.1793212890625,
				266.5,
				-3300.5224609375
			],
			"type":"VEC3"
		},
		{
			"bufferView":12,
			"componentType":5126,
			"count":42551,
			"type":"VEC3"
		},
		{
			"bufferView":13,
			"componentType":5126,
			"count":42551,
			"type":"VEC2"
		},
		{
			"bufferView":14,
			"componentType":5126,
			"count":42551,
			"type":"VEC2"
		},
		{
			"bufferView":15,
			"componentType":5126,
			"count":42551,
			"type":"VEC2"
		},
		{
			"bufferView":16,
			"componentType":5126,
			"count":42551,
			"type":"VEC2"
		},
		{
			"bufferView":17,
			"componentType":5126,
			"count":42551,
			"type":"VEC2"
		},
		{
			"bufferView":18,
			"componentType":5126,
			"count":42551,
			"type":"VEC2"
		},
		{
			"bufferView":19,
			"componentType":5126,
			"count":42551,
			"type":"VEC2"
		},
		{
			"bufferView":20,
			"componentType":5126,
			"count":42551,
			"type":"VEC2"
		},
		{
			"bufferView":21,
			"componentType":5123,
			"count":42588,
			"type":"SCALAR"
		},
		{
			"bufferView":22,
			"componentType":5126,
			"count":57322,
			"max":[
				2394.008056640625,
				814.9232177734375,
				-1476.0865478515625
			],
			"min":[
				1110.326171875,
				266.5,
				-3292.918212890625
			],
			"type":"VEC3"
		},
		{
			"bufferView":23,
			"componentType":5126,
			"count":57322,
			"type":"VEC3"
		},
		{
			"bufferView":24,
			"componentType":5126,
			"count":57322,
			"type":"VEC2"
		},
		{
			"bufferView":25,
			"componentType":5126,
			"count":57322,
			"type":"VEC2"
		},
		{
			"bufferView":26,
			"componentType":5126,
			"count":57322,
			"type":"VEC2"
		},
		{
			"bufferView":27,
			"componentType":5126,
			"count":57322,
			"type":"VEC2"
		},
		{
			"bufferView":28,
			"componentType":5126,
			"count":57322,
			"type":"VEC2"
		},
		{
			"bufferView":29,
			"componentType":5126,
			"count":57322,
			"type":"VEC2"
		},
		{
			"bufferView":30,
			"componentType":5126,
			"count":57322,
			"type":"VEC2"
		},
		{
			"bufferView":31,
			"componentType":5126,
			"count":57322,
			"type":"VEC2"
		},
		{
			"bufferView":32,
			"componentType":5123,
			"count":57366,
			"type":"SCALAR"
		},
		{
			"bufferView":33,
			"componentType":5126,
			"count":7890,
			"max":[
				795.7055053710938,
				1025.903564453125,
				-1602.3780517578125
			],
			"min":[
				379.6048583984375,
				685.2767944335938,
				-2395.652099609375
			],
			"type":"VEC3"
		},
		{
			"bufferView":34,
			"componentType":5126,
			"count":7890,
			"type":"VEC3"
		},
		{
			"bufferView":35,
			"componentType":5126,
			"count":7890,
			"type":"VEC2"
		},
		{
			"bufferView":36,
			"componentType":5126,
			"count":7890,
			"type":"VEC2"
		},
		{
			"bufferView":37,
			"componentType":5126,
			"count":7890,
			"type":"VEC2"
		},
		{
			"bufferView":38,
			"componentType":5126,
			"count":7890,
			"type":"VEC2"
		},
		{
			"bufferView":39,
			"componentType":5126,
			"count":7890,
			"type":"VEC2"
		},
		{
			"bufferView":40,
			"componentType":5126,
			"count":7890,
			"type":"VEC2"
		},
		{
			"bufferView":41,
			"componentType":5126,
			"count":7890,
			"type":"VEC2"
		},
		{
			"bufferView":42,
			"componentType":5126,
			"count":7890,
			"type":"VEC2"
		},
		{
			"bufferView":43,
			"componentType":5123,
			"count":7890,
			"type":"SCALAR"
		},
		{
			"bufferView":44,
			"componentType":5126,
			"count":7008,
			"max":[
				910.9581909179688,
				907.9638061523438,
				-2355.476318359375
			],
			"min":[
				387.138916015625,
				686.3447875976562,
				-3139.426025390625
			],
			"type":"VEC3"
		},
		{
			"bufferView":45,
			"componentType":5126,
			"count":7008,
			"type":"VEC3"
		},
		{
			"bufferView":46,
			"componentType":5126,
			"count":7008,
			"type":"VEC2"
		},
		{
			"bufferView":47,
			"componentType":5126,
			"count":7008,
			"type":"VEC2"
		},
		{
			"bufferView":48,
			"componentType":5126,
			"count":7008,
			"type":"VEC2"
		},
		{
			"bufferView":49,
			"componentType":5126,
			"count":7008,
			"type":"VEC2"
		},
		{
			"bufferView":50,
			"componentType":5126,
			"count":7008,
			"type":"VEC2"
		},
		{
			"bufferView":51,
			"componentType":5126,
			"count":7008,
			"type":"VEC2"
		},
		{
			"bufferView":52,
			"componentType":5126,
			"count":7008,
			"type":"VEC2"
		},
		{
			"bufferView":53,
			"componentType":5126,
			"count":7008,
			"type":"VEC2"
		},
		{
			"bufferView":54,
			"componentType":5123,
			"count":7008,
			"type":"SCALAR"
		},
		{
			"bufferView":55,
			"componentType":5126,
			"count":1262,
			"max":[
				2260.82568359375,
				533.4993286132812,
				-1503.142578125
			],
			"min":[
				372.0316162109375,
				200,
				-3183.163818359375
			],
			"type":"VEC3"
		},
		{
			"bufferView":56,
			"componentType":5126,
			"count":1262,
			"type":"VEC3"
		},
		{
			"bufferView":57,
			"componentType":5126,
			"count":1262,
			"type":"VEC2"
		},
		{
			"bufferView":58,
			"componentType":5126,
			"count":1262,
			"type":"VEC2"
		},
		{
			"bufferView":59,
			"componentType":5126,
			"count":1262,
			"type":"VEC2"
		},
		{
			"bufferView":60,
			"componentType":5126,
			"count":1262,
			"type":"VEC2"
		},
		{
			"bufferView":61,
			"componentType":5126,
			"count":1262,
			"type":"VEC2"
		},
		{
			"bufferView":62,
			"componentType":5126,
			"count":1262,
			"type":"VEC2"
		},
		{
			"bufferView":63,
			"componentType":5126,
			"count":1262,
			"type":"VEC2"
		},
		{
			"bufferView":64,
			"componentType":5126,
			"count":1262,
			"type":"VEC2"
		},
		{
			"bufferView":65,
			"componentType":5123,
			"count":1278,
			"type":"SCALAR"
		},
		{
			"bufferView":66,
			"componentType":5126,
			"count":11149,
			"max":[
				391.2456359863281,
				1100,
				-1250.3360595703125
			],
			"min":[
				300,
				200,
				-3450.336181640625
			],
			"type":"VEC3"
		},
		{
			"bufferView":67,
			"componentType":5126,
			"count":11149,
			"type":"VEC3"
		},
		{
			"bufferView":68,
			"componentType":5126,
			"count":11149,
			"type":"VEC2"
		},
		{
			"bufferView":69,
			"componentType":5126,
			"count":11149,
			"type":"VEC2"
		},
		{
			"bufferView":70,
			"componentType":5126,
			"count":11149,
			"type":"VEC2"
		},
		{
			"bufferView":71,
			"componentType":5126,
			"count":11149,
			"type":"VEC2"
		},
		{
			"bufferView":72,
			"componentType":5126,
			"count":11149,
			"type":"VEC2"
		},
		{
			"bufferView":73,
			"componentType":5126,
			"count":11149,
			"type":"VEC2"
		},
		{
			"bufferView":74,
			"componentType":5126,
			"count":11149,
			"type":"VEC2"
		},
		{
			"bufferView":75,
			"componentType":5126,
			"count":11149,
			"type":"VEC2"
		},
		{
			"bufferView":76,
			"componentType":5123,
			"count":12288,
			"type":"SCALAR"
		}
	],
	"bufferViews":[
		{
			"buffer":0,
			"byteLength":651504,
			"byteOffset":0,
			"target":34962
		},
		{
			"buffer":0,
			"byteLength":651504,
			"byteOffset":651504,
			"target":34962
		},
		{
			"buffer":0,
			"byteLength":434336,
			"byteOffset":1303008,
			"target":34962
		},
		{
			"buffer":0,
			"byteLength":434336,
			"byteOffset":1737344,
			"target":34962
		},
		{
			"buffer":0,
			"byteLength":434336,
			"byteOffset":2171680,
			"target":34962
		},
		{
			"buffer":0,
			"byteLength":434336,
			"byteOffset":2606016,
			"target":34962
		},
		{
			"buffer":0,
			"byteLength":434336,
			"byteOffset":3040352,
			"target":34962
		},
		{
			"buffer":0,
			"byteLength":434336,
			"byteOffset":3474688,
			"target":34962
		},
		{
			"buffer":0,
			"byteLength":434336,
			"byteOffset":3909024,
			"target":34962
		},
		{
			"buffer":0,
			"byteLength":434336,
			"byteOffset":4343360,
			"target":34962
		},
		{
			"buffer":0,
			"byteLength":108684,
			"byteOffset":4777696,
			"target":34963
		},
		{
			"buffer":0,
			"byteLength":510612,
			"byteOffset":4886380,
			"target":34962
		},
		{
			"buffer":0,
			"byteLength":510612,
			"byteOffset":5396992,
			"target":34962
		},
		{
			"buffer":0,
			"byteLength":340408,
			"byteOffset":5907604,
			"target":34962
		},
		{
			"buffer":0,
			"byteLength":340408,
			"byteOffset":6248012,
			"target":34962
		},
		{
			"buffer":0,
			"byteLength":340408,
			"byteOffset":6588420,
			"target":34962
		},
		{
			"buffer":0,
			"byteLength":340408,
			"byteOffset":6928828,
			"target":34962
		},
		{
			"buffer":0,
			"byteLength":340408,
			"byteOffset":7269236,
			"target":34962
		},
		{
			"buffer":0,
			"byteLength":340408,
			"byteOffset":7609644,
			"target":34962
		},
		{
			"buffer":0,
			"byteLength":340408,
			"byteOffset":7950052,
			"target":34962
		},
		{
			"buffer":0,
			"byteLength":340408,
			"byteOffset":8290460,
			"target":34962
		},
		{
			"buffer":0,
			"byteLength":85176,
			"byteOffset":8630868,
			"target":34963
		},
		{
			"buffer":0,
			"byteLength":687864,
			"byteOffset":8716044,
			"target":34962
		},
		{
			"buffer":0,
			"byteLength":687864,
			"byteOffset":9403908,
			"target":34962
		},
		{
			"buffer":0,
			"byteLength":458576,
			"byteOffset":10091772,
			"target":34962
		},
		{
			"buffer":0,
			"byteLength":458576,
			"byteOffset":10550348,
			"target":34962
		},
		{
			"buffer":0,
			"byteLength":458576,
			"byteOffset":11008924,
			"target":34962
		},
		{
			"buffer":0,
			"byteLength":458576,
			"byteOffset":11467500,
			"target":34962
		},
		{
			"buffer":0,
			"byteLength":458576,
			"byteOffset":11926076,
			"target":34962
		},
		{
			"buffer":0,
			"byteLength":458576,
			"byteOffset":12384652,
			"target":34962
		},
		{
			"buffer":0,
			"byteLength":458576,
			"byteOffset":12843228,
			"target":34962
		},
		{
			"buffer":0,
			"byteLength":458576,
			"byteOffset":13301804,
			"target":34962
		},
		{
			"buffer":0,
			"byteLength":114732,
			"byteOffset":13760380,
			"target":34963
		},
		{
			"buffer":0,
			"byteLength":94680,
			"byteOffset":13875112,
			"target":34962
		},
		{
			"buffer":0,
			"byteLength":94680,
			"byteOffset":13969792,
			"target":34962
		},
		{
			"buffer":0,
			"byteLength":63120,
			"byteOffset":14064472,
			"target":34962
		},
		{
			"buffer":0,
			"byteLength":63120,
			"byteOffset":14127592,
			"target":34962
		},
		{
			"buffer":0,
			"byteLength":63120,
			"byteOffset":14190712,
			"target":34962
		},
		{
			"buffer":0,
			"byteLength":63120,
			"byteOffset":14253832,
			"target":34962
		},
		{
			"buffer":0,
			"byteLength":63120,
			"byteOffset":14316952,
			"target":34962
		},
		{
			"buffer":0,
			"byteLength":63120,
			"byteOffset":14380072,
			"target":34962
		},
		{
			"buffer":0,
			"byteLength":63120,
			"byteOffset":14443192,
			"target":34962
		},
		{
			"buffer":0,
			"byteLength":63120,
			"byteOffset":14506312,
			"target":34962
		},
		{
			"buffer":0,
			"byteLength":15780,
			"byteOffset":14569432,
			"target":34963
		},
		{
			"buffer":0,
			"byteLength":84096,
			"byteOffset":14585212,
			"target":34962
		},
		{
			"buffer":0,
			"byteLength":84096,
			"byteOffset":14669308,
			"target":34962
		},
		{
			"buffer":0,
			"byteLength":56064,
			"byteOffset":14753404,
			"target":34962
		},
		{
			"buffer":0,
			"byteLength":56064,
			"byteOffset":14809468,
			"target":34962
		},
		{
			"buffer":0,
			"byteLength":56064,
			"byteOffset":14865532,
			"target":34962
		},
		{
			"buffer":0,
			"byteLength":56064,
			"byteOffset":14921596,
			"target":34962
		},
		{
			"buffer":0,
			"byteLength":56064,
			"byteOffset":14977660,
			"target":34962
		},
		{
			"buffer":0,
			"byteLength":56064,
			"byteOffset":15033724,
			"target":34962
		},
		{
			"buffer":0,
			"byteLength":56064,
			"byteOffset":15089788,
			"target":34962
		},
		{
			"buffer":0,
			"byteLength":56064,
			"byteOffset":15145852,
			"target":34962
		},
		{
			"buffer":0,
			"byteLength":14016,
			"byteOffset":15201916,
			"target":34963
		},
		{
			"buffer":0,
			"byteLength":15144,
			"byteOffset":15215932,
			"target":34962
		},
		{
			"buffer":0,
			"byteLength":15144,
			"byteOffset":15231076,
			"target":34962
		},
		{
			"buffer":0,
			"byteLength":10096,
			"byteOffset":15246220,
			"target":34962
		},
		{
			"buffer":0,
			"byteLength":10096,
			"byteOffset":15256316,
			"target":34962
		},
		{
			"buffer":0,
			"byteLength":10096,
			"byteOffset":15266412,
			"target":34962
		},
		{
			"buffer":0,
			"byteLength":10096,
			"byteOffset":15276508,
			"target":34962
		},
		{
			"buffer":0,
			"byteLength":10096,
			"byteOffset":15286604,
			"target":34962
		},
		{
			"buffer":0,
			"byteLength":10096,
			"byteOffset":15296700,
			"target":34962
		},
		{
			"buffer":0,
			"byteLength":10096,
			"byteOffset":15306796,
			"target":34962
		},
		{
			"buffer":0,
			"byteLength":10096,
			"byteOffset":15316892,
			"target":34962
		},
		{
			"buffer":0,
			"byteLength":2556,
			"byteOffset":15326988,
			"target":34963
		},
		{
			"buffer":0,
			"byteLength":133788,
			"byteOffset":15329544,
			"target":34962
		},
		{
			"buffer":0,
			"byteLength":133788,
			"byteOffset":15463332,
			"target":34962
		},
		{
			"buffer":0,
			"byteLength":89192,
			"byteOffset":15597120,
			"target":34962
		},
		{
			"buffer":0,
			"byteLength":89192,
			"byteOffset":15686312,
			"target":34962
		},
		{
			"buffer":0,
			"byteLength":89192,
			"byteOffset":15775504,
			"target":34962
		},
		{
			"buffer":0,
			"byteLength":89192,
			"byteOffset":15864696,
			"target":34962
		},
		{
			"buffer":0,
			"byteLength":89192,
			"byteOffset":15953888,
			"target":34962
		},
		{
			"buffer":0,
			"byteLength":89192,
			"byteOffset":16043080,
			"target":34962
		},
		{
			"buffer":0,
			"byteLength":89192,
			"byteOffset":16132272,
			"target":34962
		},
		{
			"buffer":0,
			"byteLength":89192,
			"byteOffset":16221464,
			"target":34962
		},
		{
			"buffer":0,
			"byteLength":24576,
			"byteOffset":16310656,
			"target":34963
		}
	],
	"samplers":[
		{
			"magFilter":9729,
			"minFilter":9987
		}
	],
	"buffers":[
		{
			"byteLength":16335232,
			"uri":"bed.bin"
		}
	]
}
