{
	"asset":{
		"generator":"Khronos glTF Blender I/O v4.4.55",
		"version":"2.0"
	},
	"scene":0,
	"scenes":[
		{
			"name":"Scene",
			"nodes":[
				0,
				1,
				2,
				3,
				4
			]
		}
	],
	"nodes":[
		{
			"mesh":0,
			"name":"Mesh331_Metal_Silver_0",
			"rotation":[
				0,
				-0.791100025177002,
				0,
				0.6116868853569031
			],
			"scale":[
				0.009999998845160007,
				0.009999999776482582,
				0.009999999776482582
			],
			"translation":[
				20.644847869873047,
				-0.14657342433929443,
				-44.414981842041016
			]
		},
		{
			"mesh":1,
			"name":"Mesh332__Color_006_1_0",
			"rotation":[
				0,
				-0.791100025177002,
				0,
				0.6116868853569031
			],
			"scale":[
				0.009999998845160007,
				0.009999999776482582,
				0.009999999776482582
			],
			"translation":[
				20.644847869873047,
				-0.14657342433929443,
				-44.414981842041016
			]
		},
		{
			"mesh":2,
			"name":"Mesh332_Metal_Silver_0",
			"rotation":[
				0,
				-0.791100025177002,
				0,
				0.6116868853569031
			],
			"scale":[
				0.009999998845160007,
				0.009999999776482582,
				0.009999999776482582
			],
			"translation":[
				20.644847869873047,
				-0.14657342433929443,
				-44.414981842041016
			]
		},
		{
			"mesh":3,
			"name":"Mesh333_llum_emissive_0",
			"rotation":[
				0,
				-0.791100025177002,
				0,
				0.6116868853569031
			],
			"scale":[
				0.009999998845160007,
				0.009999999776482582,
				0.009999999776482582
			],
			"translation":[
				20.644847869873047,
				-0.14657342433929443,
				-44.414981842041016
			]
		},
		{
			"mesh":4,
			"name":"Mesh333_Sumele_Dress2_glass_0",
			"rotation":[
				0,
				-0.791100025177002,
				0,
				0.6116868853569031
			],
			"scale":[
				0.009999998845160007,
				0.009999999776482582,
				0.009999999776482582
			],
			"translation":[
				20.644847869873047,
				-0.14657342433929443,
				-44.414981842041016
			]
		}
	],
	"materials":[
		{
			"doubleSided":true,
			"name":"Metal_Silver",
			"pbrMetallicRoughness":{
				"baseColorTexture":{
					"index":0
				},
				"metallicFactor":0,
				"roughnessFactor":0.9302135109901428
			}
		},
		{
			"doubleSided":true,
			"name":"Color_006_1",
			"pbrMetallicRoughness":{
				"baseColorFactor":[
					0.10980399698019028,
					0.10980399698019028,
					0.10980399698019028,
					1
				],
				"metallicFactor":0,
				"roughnessFactor":0.9302135109901428
			}
		},
		{
			"doubleSided":true,
			"name":"llum_emissive",
			"pbrMetallicRoughness":{
				"baseColorFactor":[
					0.9803919792175293,
					1,
					0.8705880045890808,
					1
				],
				"metallicFactor":0,
				"roughnessFactor":0.9302135109901428
			}
		},
		{
			"alphaMode":"BLEND",
			"doubleSided":true,
			"name":"Sumele_Dress2_glass",
			"pbrMetallicRoughness":{
				"baseColorFactor":[
					0.8823530077934265,
					0.6235290169715881,
					0.03137249872088432,
					0.44999998807907104
				],
				"metallicFactor":0,
				"roughnessFactor":0.9302135109901428
			}
		}
	],
	"meshes":[
		{
			"name":"Mesh331_Metal_Silver_0",
			"primitives":[
				{
					"attributes":{
						"POSITION":0,
						"NORMAL":1,
						"TEXCOORD_0":2,
						"TEXCOORD_1":3,
						"TEXCOORD_2":4,
						"TEXCOORD_3":5,
						"TEXCOORD_4":6,
						"TEXCOORD_5":7,
						"TEXCOORD_6":8,
						"TEXCOORD_7":9
					},
					"indices":10,
					"material":0
				}
			]
		},
		{
			"name":"Mesh332__Color_006_1_0",
			"primitives":[
				{
					"attributes":{
						"POSITION":11,
						"NORMAL":12,
						"TEXCOORD_0":13,
						"TEXCOORD_1":14,
						"TEXCOORD_2":15,
						"TEXCOORD_3":16,
						"TEXCOORD_4":17,
						"TEXCOORD_5":18,
						"TEXCOORD_6":19,
						"TEXCOORD_7":20
					},
					"indices":21,
					"material":1
				}
			]
		},
		{
			"name":"Mesh332_Metal_Silver_0",
			"primitives":[
				{
					"attributes":{
						"POSITION":22,
						"NORMAL":23,
						"TEXCOORD_0":24,
						"TEXCOORD_1":25,
						"TEXCOORD_2":26,
						"TEXCOORD_3":27,
						"TEXCOORD_4":28,
						"TEXCOORD_5":29,
						"TEXCOORD_6":30,
						"TEXCOORD_7":31
					},
					"indices":32,
					"material":0
				}
			]
		},
		{
			"name":"Mesh333_llum_emissive_0",
			"primitives":[
				{
					"attributes":{
						"POSITION":33,
						"NORMAL":34,
						"TEXCOORD_0":35,
						"TEXCOORD_1":36,
						"TEXCOORD_2":37,
						"TEXCOORD_3":38,
						"TEXCOORD_4":39,
						"TEXCOORD_5":40,
						"TEXCOORD_6":41,
						"TEXCOORD_7":42
					},
					"indices":43,
					"material":2
				}
			]
		},
		{
			"name":"Mesh333_Sumele_Dress2_glass_0",
			"primitives":[
				{
					"attributes":{
						"POSITION":44,
						"NORMAL":45,
						"TEXCOORD_0":46,
						"TEXCOORD_1":47,
						"TEXCOORD_2":48,
						"TEXCOORD_3":49,
						"TEXCOORD_4":50,
						"TEXCOORD_5":51,
						"TEXCOORD_6":52,
						"TEXCOORD_7":53
					},
					"indices":54,
					"material":3
				}
			]
		}
	],
	"textures":[
		{
			"sampler":0,
			"source":0
		}
	],
	"images":[
		{
			"mimeType":"image/jpeg",
			"name":"Metal_Silver_baseColor",
			"uri":"Metal_Silver_baseColor.jpg"
		}
	],
	"accessors":[
		{
			"bufferView":0,
			"componentType":5126,
			"count":174,
			"max":[
				9254.0029296875,
				3482.32763671875,
				-1488.032470703125
			],
			"min":[
				9248.0146484375,
				3257.0986328125,
				-1494.020751953125
			],
			"type":"VEC3"
		},
		{
			"bufferView":1,
			"componentType":5126,
			"count":174,
			"type":"VEC3"
		},
		{
			"bufferView":2,
			"componentType":5126,
			"count":174,
			"type":"VEC2"
		},
		{
			"bufferView":3,
			"componentType":5126,
			"count":174,
			"type":"VEC2"
		},
		{
			"bufferView":4,
			"componentType":5126,
			"count":174,
			"type":"VEC2"
		},
		{
			"bufferView":5,
			"componentType":5126,
			"count":174,
			"type":"VEC2"
		},
		{
			"bufferView":6,
			"componentType":5126,
			"count":174,
			"type":"VEC2"
		},
		{
			"bufferView":7,
			"componentType":5126,
			"count":174,
			"type":"VEC2"
		},
		{
			"bufferView":8,
			"componentType":5126,
			"count":174,
			"type":"VEC2"
		},
		{
			"bufferView":9,
			"componentType":5126,
			"count":174,
			"type":"VEC2"
		},
		{
			"bufferView":10,
			"componentType":5123,
			"count":276,
			"type":"SCALAR"
		},
		{
			"bufferView":11,
			"componentType":5126,
			"count":5802,
			"max":[
				9417.154296875,
				3957.32763671875,
				-1409.248046875
			],
			"min":[
				9169.23046875,
				3413.32763671875,
				-1572.80517578125
			],
			"type":"VEC3"
		},
		{
			"bufferView":12,
			"componentType":5126,
			"count":5802,
			"type":"VEC3"
		},
		{
			"bufferView":13,
			"componentType":5126,
			"count":5802,
			"type":"VEC2"
		},
		{
			"bufferView":14,
			"componentType":5126,
			"count":5802,
			"type":"VEC2"
		},
		{
			"bufferView":15,
			"componentType":5126,
			"count":5802,
			"type":"VEC2"
		},
		{
			"bufferView":16,
			"componentType":5126,
			"count":5802,
			"type":"VEC2"
		},
		{
			"bufferView":17,
			"componentType":5126,
			"count":5802,
			"type":"VEC2"
		},
		{
			"bufferView":18,
			"componentType":5126,
			"count":5802,
			"type":"VEC2"
		},
		{
			"bufferView":19,
			"componentType":5126,
			"count":5802,
			"type":"VEC2"
		},
		{
			"bufferView":20,
			"componentType":5126,
			"count":5802,
			"type":"VEC2"
		},
		{
			"bufferView":21,
			"componentType":5123,
			"count":6207,
			"type":"SCALAR"
		},
		{
			"bufferView":22,
			"componentType":5126,
			"count":961,
			"max":[
				9417.3544921875,
				3957.4375,
				-1483.026611328125
			],
			"min":[
				9243.0087890625,
				3482.32763671875,
				-1499.026611328125
			],
			"type":"VEC3"
		},
		{
			"bufferView":23,
			"componentType":5126,
			"count":961,
			"type":"VEC3"
		},
		{
			"bufferView":24,
			"componentType":5126,
			"count":961,
			"type":"VEC2"
		},
		{
			"bufferView":25,
			"componentType":5126,
			"count":961,
			"type":"VEC2"
		},
		{
			"bufferView":26,
			"componentType":5126,
			"count":961,
			"type":"VEC2"
		},
		{
			"bufferView":27,
			"componentType":5126,
			"count":961,
			"type":"VEC2"
		},
		{
			"bufferView":28,
			"componentType":5126,
			"count":961,
			"type":"VEC2"
		},
		{
			"bufferView":29,
			"componentType":5126,
			"count":961,
			"type":"VEC2"
		},
		{
			"bufferView":30,
			"componentType":5126,
			"count":961,
			"type":"VEC2"
		},
		{
			"bufferView":31,
			"componentType":5126,
			"count":961,
			"type":"VEC2"
		},
		{
			"bufferView":32,
			"componentType":5123,
			"count":1152,
			"type":"SCALAR"
		},
		{
			"bufferView":33,
			"componentType":5126,
			"count":228,
			"max":[
				9333.3623046875,
				3407.5791015625,
				-1408.6727294921875
			],
			"min":[
				9168.6552734375,
				3377.0986328125,
				-1573.38037109375
			],
			"type":"VEC3"
		},
		{
			"bufferView":34,
			"componentType":5126,
			"count":228,
			"type":"VEC3"
		},
		{
			"bufferView":35,
			"componentType":5126,
			"count":228,
			"type":"VEC2"
		},
		{
			"bufferView":36,
			"componentType":5126,
			"count":228,
			"type":"VEC2"
		},
		{
			"bufferView":37,
			"componentType":5126,
			"count":228,
			"type":"VEC2"
		},
		{
			"bufferView":38,
			"componentType":5126,
			"count":228,
			"type":"VEC2"
		},
		{
			"bufferView":39,
			"componentType":5126,
			"count":228,
			"type":"VEC2"
		},
		{
			"bufferView":40,
			"componentType":5126,
			"count":228,
			"type":"VEC2"
		},
		{
			"bufferView":41,
			"componentType":5126,
			"count":228,
			"type":"VEC2"
		},
		{
			"bufferView":42,
			"componentType":5126,
			"count":228,
			"type":"VEC2"
		},
		{
			"bufferView":43,
			"componentType":5123,
			"count":228,
			"type":"SCALAR"
		},
		{
			"bufferView":44,
			"componentType":5126,
			"count":4976,
			"max":[
				9451,
				3416.5380859375,
				-1291.360107421875
			],
			"min":[
				9051.017578125,
				3296.0751953125,
				-1690.9847412109375
			],
			"type":"VEC3"
		},
		{
			"bufferView":45,
			"componentType":5126,
			"count":4976,
			"type":"VEC3"
		},
		{
			"bufferView":46,
			"componentType":5126,
			"count":4976,
			"type":"VEC2"
		},
		{
			"bufferView":47,
			"componentType":5126,
			"count":4976,
			"type":"VEC2"
		},
		{
			"bufferView":48,
			"componentType":5126,
			"count":4976,
			"type":"VEC2"
		},
		{
			"bufferView":49,
			"componentType":5126,
			"count":4976,
			"type":"VEC2"
		},
		{
			"bufferView":50,
			"componentType":5126,
			"count":4976,
			"type":"VEC2"
		},
		{
			"bufferView":51,
			"componentType":5126,
			"count":4976,
			"type":"VEC2"
		},
		{
			"bufferView":52,
			"componentType":5126,
			"count":4976,
			"type":"VEC2"
		},
		{
			"bufferView":53,
			"componentType":5126,
			"count":4976,
			"type":"VEC2"
		},
		{
			"bufferView":54,
			"componentType":5123,
			"count":5058,
			"type":"SCALAR"
		}
	],
	"bufferViews":[
		{
			"buffer":0,
			"byteLength":2088,
			"byteOffset":0,
			"target":34962
		},
		{
			"buffer":0,
			"byteLength":2088,
			"byteOffset":2088,
			"target":34962
		},
		{
			"buffer":0,
			"byteLength":1392,
			"byteOffset":4176,
			"target":34962
		},
		{
			"buffer":0,
			"byteLength":1392,
			"byteOffset":5568,
			"target":34962
		},
		{
			"buffer":0,
			"byteLength":1392,
			"byteOffset":6960,
			"target":34962
		},
		{
			"buffer":0,
			"byteLength":1392,
			"byteOffset":8352,
			"target":34962
		},
		{
			"buffer":0,
			"byteLength":1392,
			"byteOffset":9744,
			"target":34962
		},
		{
			"buffer":0,
			"byteLength":1392,
			"byteOffset":11136,
			"target":34962
		},
		{
			"buffer":0,
			"byteLength":1392,
			"byteOffset":12528,
			"target":34962
		},
		{
			"buffer":0,
			"byteLength":1392,
			"byteOffset":13920,
			"target":34962
		},
		{
			"buffer":0,
			"byteLength":552,
			"byteOffset":15312,
			"target":34963
		},
		{
			"buffer":0,
			"byteLength":69624,
			"byteOffset":15864,
			"target":34962
		},
		{
			"buffer":0,
			"byteLength":69624,
			"byteOffset":85488,
			"target":34962
		},
		{
			"buffer":0,
			"byteLength":46416,
			"byteOffset":155112,
			"target":34962
		},
		{
			"buffer":0,
			"byteLength":46416,
			"byteOffset":201528,
			"target":34962
		},
		{
			"buffer":0,
			"byteLength":46416,
			"byteOffset":247944,
			"target":34962
		},
		{
			"buffer":0,
			"byteLength":46416,
			"byteOffset":294360,
			"target":34962
		},
		{
			"buffer":0,
			"byteLength":46416,
			"byteOffset":340776,
			"target":34962
		},
		{
			"buffer":0,
			"byteLength":46416,
			"byteOffset":387192,
			"target":34962
		},
		{
			"buffer":0,
			"byteLength":46416,
			"byteOffset":433608,
			"target":34962
		},
		{
			"buffer":0,
			"byteLength":46416,
			"byteOffset":480024,
			"target":34962
		},
		{
			"buffer":0,
			"byteLength":12414,
			"byteOffset":526440,
			"target":34963
		},
		{
			"buffer":0,
			"byteLength":11532,
			"byteOffset":538856,
			"target":34962
		},
		{
			"buffer":0,
			"byteLength":11532,
			"byteOffset":550388,
			"target":34962
		},
		{
			"buffer":0,
			"byteLength":7688,
			"byteOffset":561920,
			"target":34962
		},
		{
			"buffer":0,
			"byteLength":7688,
			"byteOffset":569608,
			"target":34962
		},
		{
			"buffer":0,
			"byteLength":7688,
			"byteOffset":577296,
			"target":34962
		},
		{
			"buffer":0,
			"byteLength":7688,
			"byteOffset":584984,
			"target":34962
		},
		{
			"buffer":0,
			"byteLength":7688,
			"byteOffset":592672,
			"target":34962
		},
		{
			"buffer":0,
			"byteLength":7688,
			"byteOffset":600360,
			"target":34962
		},
		{
			"buffer":0,
			"byteLength":7688,
			"byteOffset":608048,
			"target":34962
		},
		{
			"buffer":0,
			"byteLength":7688,
			"byteOffset":615736,
			"target":34962
		},
		{
			"buffer":0,
			"byteLength":2304,
			"byteOffset":623424,
			"target":34963
		},
		{
			"buffer":0,
			"byteLength":2736,
			"byteOffset":625728,
			"target":34962
		},
		{
			"buffer":0,
			"byteLength":2736,
			"byteOffset":628464,
			"target":34962
		},
		{
			"buffer":0,
			"byteLength":1824,
			"byteOffset":631200,
			"target":34962
		},
		{
			"buffer":0,
			"byteLength":1824,
			"byteOffset":633024,
			"target":34962
		},
		{
			"buffer":0,
			"byteLength":1824,
			"byteOffset":634848,
			"target":34962
		},
		{
			"buffer":0,
			"byteLength":1824,
			"byteOffset":636672,
			"target":34962
		},
		{
			"buffer":0,
			"byteLength":1824,
			"byteOffset":638496,
			"target":34962
		},
		{
			"buffer":0,
			"byteLength":1824,
			"byteOffset":640320,
			"target":34962
		},
		{
			"buffer":0,
			"byteLength":1824,
			"byteOffset":642144,
			"target":34962
		},
		{
			"buffer":0,
			"byteLength":1824,
			"byteOffset":643968,
			"target":34962
		},
		{
			"buffer":0,
			"byteLength":456,
			"byteOffset":645792,
			"target":34963
		},
		{
			"buffer":0,
			"byteLength":59712,
			"byteOffset":646248,
			"target":34962
		},
		{
			"buffer":0,
			"byteLength":59712,
			"byteOffset":705960,
			"target":34962
		},
		{
			"buffer":0,
			"byteLength":39808,
			"byteOffset":765672,
			"target":34962
		},
		{
			"buffer":0,
			"byteLength":39808,
			"byteOffset":805480,
			"target":34962
		},
		{
			"buffer":0,
			"byteLength":39808,
			"byteOffset":845288,
			"target":34962
		},
		{
			"buffer":0,
			"byteLength":39808,
			"byteOffset":885096,
			"target":34962
		},
		{
			"buffer":0,
			"byteLength":39808,
			"byteOffset":924904,
			"target":34962
		},
		{
			"buffer":0,
			"byteLength":39808,
			"byteOffset":964712,
			"target":34962
		},
		{
			"buffer":0,
			"byteLength":39808,
			"byteOffset":1004520,
			"target":34962
		},
		{
			"buffer":0,
			"byteLength":39808,
			"byteOffset":1044328,
			"target":34962
		},
		{
			"buffer":0,
			"byteLength":10116,
			"byteOffset":1084136,
			"target":34963
		}
	],
	"samplers":[
		{
			"magFilter":9729,
			"minFilter":9987
		}
	],
	"buffers":[
		{
			"byteLength":1094252,
			"uri":"house_lamp.bin"
		}
	]
}
