{
	"asset":{
		"generator":"Khronos glTF Blender I/O v4.4.55",
		"version":"2.0"
	},
	"scene":0,
	"scenes":[
		{
			"name":"Scene",
			"nodes":[
				0,
				1,
				2
			]
		}
	],
	"nodes":[
		{
			"mesh":0,
			"name":"Mesh207__Color_006_1_0",
			"rotation":[
				0,
				0.5920334458351135,
				0,
				0.8059133887290955
			],
			"scale":[
				0.009999999776482582,
				0.010000001639127731,
				0.010000001639127731
			],
			"translation":[
				-10.194435119628906,
				-15.471996307373047,
				56.23870849609375
			]
		},
		{
			"mesh":1,
			"name":"Mesh208__Color_006_1_0",
			"rotation":[
				0,
				0.5920334458351135,
				0,
				0.8059133887290955
			],
			"scale":[
				0.009999999776482582,
				0.010000001639127731,
				0.010000001639127731
			],
			"translation":[
				-10.194435119628906,
				-15.471996307373047,
				56.23870849609375
			]
		},
		{
			"mesh":2,
			"name":"Mesh209__Color_006_1_0",
			"rotation":[
				0,
				0.5920334458351135,
				0,
				0.8059133887290955
			],
			"scale":[
				0.009999999776482582,
				0.010000001639127731,
				0.010000001639127731
			],
			"translation":[
				-10.194435119628906,
				-15.471996307373047,
				56.23870849609375
			]
		}
	],
	"materials":[
		{
			"doubleSided":true,
			"name":"Color_006_1",
			"pbrMetallicRoughness":{
				"baseColorFactor":[
					0.10980399698019028,
					0.10980399698019028,
					0.10980399698019028,
					1
				],
				"metallicFactor":0,
				"roughnessFactor":0.9302135109901428
			}
		}
	],
	"meshes":[
		{
			"name":"Mesh207__Color_006_1_0",
			"primitives":[
				{
					"attributes":{
						"POSITION":0,
						"NORMAL":1,
						"TEXCOORD_0":2,
						"TEXCOORD_1":3,
						"TEXCOORD_2":4,
						"TEXCOORD_3":5,
						"TEXCOORD_4":6,
						"TEXCOORD_5":7,
						"TEXCOORD_6":8,
						"TEXCOORD_7":9
					},
					"indices":10,
					"material":0
				}
			]
		},
		{
			"name":"Mesh208__Color_006_1_0",
			"primitives":[
				{
					"attributes":{
						"POSITION":11,
						"NORMAL":12,
						"TEXCOORD_0":13,
						"TEXCOORD_1":14,
						"TEXCOORD_2":15,
						"TEXCOORD_3":16,
						"TEXCOORD_4":17,
						"TEXCOORD_5":18,
						"TEXCOORD_6":19,
						"TEXCOORD_7":20
					},
					"indices":21,
					"material":0
				}
			]
		},
		{
			"name":"Mesh209__Color_006_1_0",
			"primitives":[
				{
					"attributes":{
						"POSITION":22,
						"NORMAL":23,
						"TEXCOORD_0":24,
						"TEXCOORD_1":25,
						"TEXCOORD_2":26,
						"TEXCOORD_3":27,
						"TEXCOORD_4":28,
						"TEXCOORD_5":29,
						"TEXCOORD_6":30,
						"TEXCOORD_7":31
					},
					"indices":32,
					"material":0
				}
			]
		}
	],
	"accessors":[
		{
			"bufferView":0,
			"componentType":5126,
			"count":111,
			"max":[
				7351,
				1938.2481689453125,
				-3310.336181640625
			],
			"min":[
				7327,
				1798.2481689453125,
				-3450.336181640625
			],
			"type":"VEC3"
		},
		{
			"bufferView":1,
			"componentType":5126,
			"count":111,
			"type":"VEC3"
		},
		{
			"bufferView":2,
			"componentType":5126,
			"count":111,
			"type":"VEC2"
		},
		{
			"bufferView":3,
			"componentType":5126,
			"count":111,
			"type":"VEC2"
		},
		{
			"bufferView":4,
			"componentType":5126,
			"count":111,
			"type":"VEC2"
		},
		{
			"bufferView":5,
			"componentType":5126,
			"count":111,
			"type":"VEC2"
		},
		{
			"bufferView":6,
			"componentType":5126,
			"count":111,
			"type":"VEC2"
		},
		{
			"bufferView":7,
			"componentType":5126,
			"count":111,
			"type":"VEC2"
		},
		{
			"bufferView":8,
			"componentType":5126,
			"count":111,
			"type":"VEC2"
		},
		{
			"bufferView":9,
			"componentType":5126,
			"count":111,
			"type":"VEC2"
		},
		{
			"bufferView":10,
			"componentType":5123,
			"count":198,
			"type":"SCALAR"
		},
		{
			"bufferView":11,
			"componentType":5126,
			"count":114,
			"max":[
				6401.79541015625,
				1938.2481689453125,
				-3310.336181640625
			],
			"min":[
				6377.79541015625,
				1798.2481689453125,
				-3450.336181640625
			],
			"type":"VEC3"
		},
		{
			"bufferView":12,
			"componentType":5126,
			"count":114,
			"type":"VEC3"
		},
		{
			"bufferView":13,
			"componentType":5126,
			"count":114,
			"type":"VEC2"
		},
		{
			"bufferView":14,
			"componentType":5126,
			"count":114,
			"type":"VEC2"
		},
		{
			"bufferView":15,
			"componentType":5126,
			"count":114,
			"type":"VEC2"
		},
		{
			"bufferView":16,
			"componentType":5126,
			"count":114,
			"type":"VEC2"
		},
		{
			"bufferView":17,
			"componentType":5126,
			"count":114,
			"type":"VEC2"
		},
		{
			"bufferView":18,
			"componentType":5126,
			"count":114,
			"type":"VEC2"
		},
		{
			"bufferView":19,
			"componentType":5126,
			"count":114,
			"type":"VEC2"
		},
		{
			"bufferView":20,
			"componentType":5126,
			"count":114,
			"type":"VEC2"
		},
		{
			"bufferView":21,
			"componentType":5123,
			"count":198,
			"type":"SCALAR"
		},
		{
			"bufferView":22,
			"componentType":5126,
			"count":24,
			"max":[
				7401,
				1964.2481689453125,
				-3170.816162109375
			],
			"min":[
				6327.79541015625,
				1938.2481689453125,
				-3450.336181640625
			],
			"type":"VEC3"
		},
		{
			"bufferView":23,
			"componentType":5126,
			"count":24,
			"type":"VEC3"
		},
		{
			"bufferView":24,
			"componentType":5126,
			"count":24,
			"type":"VEC2"
		},
		{
			"bufferView":25,
			"componentType":5126,
			"count":24,
			"type":"VEC2"
		},
		{
			"bufferView":26,
			"componentType":5126,
			"count":24,
			"type":"VEC2"
		},
		{
			"bufferView":27,
			"componentType":5126,
			"count":24,
			"type":"VEC2"
		},
		{
			"bufferView":28,
			"componentType":5126,
			"count":24,
			"type":"VEC2"
		},
		{
			"bufferView":29,
			"componentType":5126,
			"count":24,
			"type":"VEC2"
		},
		{
			"bufferView":30,
			"componentType":5126,
			"count":24,
			"type":"VEC2"
		},
		{
			"bufferView":31,
			"componentType":5126,
			"count":24,
			"type":"VEC2"
		},
		{
			"bufferView":32,
			"componentType":5123,
			"count":36,
			"type":"SCALAR"
		}
	],
	"bufferViews":[
		{
			"buffer":0,
			"byteLength":1332,
			"byteOffset":0,
			"target":34962
		},
		{
			"buffer":0,
			"byteLength":1332,
			"byteOffset":1332,
			"target":34962
		},
		{
			"buffer":0,
			"byteLength":888,
			"byteOffset":2664,
			"target":34962
		},
		{
			"buffer":0,
			"byteLength":888,
			"byteOffset":3552,
			"target":34962
		},
		{
			"buffer":0,
			"byteLength":888,
			"byteOffset":4440,
			"target":34962
		},
		{
			"buffer":0,
			"byteLength":888,
			"byteOffset":5328,
			"target":34962
		},
		{
			"buffer":0,
			"byteLength":888,
			"byteOffset":6216,
			"target":34962
		},
		{
			"buffer":0,
			"byteLength":888,
			"byteOffset":7104,
			"target":34962
		},
		{
			"buffer":0,
			"byteLength":888,
			"byteOffset":7992,
			"target":34962
		},
		{
			"buffer":0,
			"byteLength":888,
			"byteOffset":8880,
			"target":34962
		},
		{
			"buffer":0,
			"byteLength":396,
			"byteOffset":9768,
			"target":34963
		},
		{
			"buffer":0,
			"byteLength":1368,
			"byteOffset":10164,
			"target":34962
		},
		{
			"buffer":0,
			"byteLength":1368,
			"byteOffset":11532,
			"target":34962
		},
		{
			"buffer":0,
			"byteLength":912,
			"byteOffset":12900,
			"target":34962
		},
		{
			"buffer":0,
			"byteLength":912,
			"byteOffset":13812,
			"target":34962
		},
		{
			"buffer":0,
			"byteLength":912,
			"byteOffset":14724,
			"target":34962
		},
		{
			"buffer":0,
			"byteLength":912,
			"byteOffset":15636,
			"target":34962
		},
		{
			"buffer":0,
			"byteLength":912,
			"byteOffset":16548,
			"target":34962
		},
		{
			"buffer":0,
			"byteLength":912,
			"byteOffset":17460,
			"target":34962
		},
		{
			"buffer":0,
			"byteLength":912,
			"byteOffset":18372,
			"target":34962
		},
		{
			"buffer":0,
			"byteLength":912,
			"byteOffset":19284,
			"target":34962
		},
		{
			"buffer":0,
			"byteLength":396,
			"byteOffset":20196,
			"target":34963
		},
		{
			"buffer":0,
			"byteLength":288,
			"byteOffset":20592,
			"target":34962
		},
		{
			"buffer":0,
			"byteLength":288,
			"byteOffset":20880,
			"target":34962
		},
		{
			"buffer":0,
			"byteLength":192,
			"byteOffset":21168,
			"target":34962
		},
		{
			"buffer":0,
			"byteLength":192,
			"byteOffset":21360,
			"target":34962
		},
		{
			"buffer":0,
			"byteLength":192,
			"byteOffset":21552,
			"target":34962
		},
		{
			"buffer":0,
			"byteLength":192,
			"byteOffset":21744,
			"target":34962
		},
		{
			"buffer":0,
			"byteLength":192,
			"byteOffset":21936,
			"target":34962
		},
		{
			"buffer":0,
			"byteLength":192,
			"byteOffset":22128,
			"target":34962
		},
		{
			"buffer":0,
			"byteLength":192,
			"byteOffset":22320,
			"target":34962
		},
		{
			"buffer":0,
			"byteLength":192,
			"byteOffset":22512,
			"target":34962
		},
		{
			"buffer":0,
			"byteLength":72,
			"byteOffset":22704,
			"target":34963
		}
	],
	"buffers":[
		{
			"byteLength":22776,
			"uri":"wall_shelf.bin"
		}
	]
}
