{
	"asset":{
		"generator":"Khronos glTF Blender I/O v4.4.55",
		"version":"2.0"
	},
	"scene":0,
	"scenes":[
		{
			"name":"Scene",
			"nodes":[
				0
			]
		}
	],
	"nodes":[
		{
			"mesh":0,
			"name":"Mesh240_Colore_lavatrice_0",
			"rotation":[
				0,
				-0.9015199542045593,
				0,
				0.4327375888824463
			],
			"scale":[
				0.010000000707805157,
				0.010000001639127731,
				0.010000001639127731
			],
			"translation":[
				7.851143836975098,
				-29.333263397216797,
				32.46049499511719
			]
		}
	],
	"materials":[
		{
			"doubleSided":true,
			"name":"Colore_lavatrice",
			"pbrMetallicRoughness":{
				"baseColorTexture":{
					"index":0
				},
				"metallicFactor":0,
				"roughnessFactor":0.9302135109901428
			}
		}
	],
	"meshes":[
		{
			"name":"Mesh240_Colore_lavatrice_0",
			"primitives":[
				{
					"attributes":{
						"POSITION":0,
						"NORMAL":1,
						"TEXCOORD_0":2,
						"TEXCOORD_1":3,
						"TEXCOORD_2":4,
						"TEXCOORD_3":5,
						"TEXCOORD_4":6,
						"TEXCOORD_5":7,
						"TEXCOORD_6":8,
						"TEXCOORD_7":9
					},
					"indices":10,
					"material":0
				}
			]
		}
	],
	"textures":[
		{
			"sampler":0,
			"source":0
		}
	],
	"images":[
		{
			"mimeType":"image/jpeg",
			"name":"Colore_lavatrice_baseColor",
			"uri":"Colore_lavatrice_baseColor.jpg"
		}
	],
	"accessors":[
		{
			"bufferView":0,
			"componentType":5126,
			"count":54,
			"max":[
				3458.313720703125,
				967.125,
				-485.9847412109375
			],
			"min":[
				2916.813720703125,
				200,
				-1027.4847412109375
			],
			"type":"VEC3"
		},
		{
			"bufferView":1,
			"componentType":5126,
			"count":54,
			"type":"VEC3"
		},
		{
			"bufferView":2,
			"componentType":5126,
			"count":54,
			"type":"VEC2"
		},
		{
			"bufferView":3,
			"componentType":5126,
			"count":54,
			"type":"VEC2"
		},
		{
			"bufferView":4,
			"componentType":5126,
			"count":54,
			"type":"VEC2"
		},
		{
			"bufferView":5,
			"componentType":5126,
			"count":54,
			"type":"VEC2"
		},
		{
			"bufferView":6,
			"componentType":5126,
			"count":54,
			"type":"VEC2"
		},
		{
			"bufferView":7,
			"componentType":5126,
			"count":54,
			"type":"VEC2"
		},
		{
			"bufferView":8,
			"componentType":5126,
			"count":54,
			"type":"VEC2"
		},
		{
			"bufferView":9,
			"componentType":5126,
			"count":54,
			"type":"VEC2"
		},
		{
			"bufferView":10,
			"componentType":5123,
			"count":102,
			"type":"SCALAR"
		}
	],
	"bufferViews":[
		{
			"buffer":0,
			"byteLength":648,
			"byteOffset":0,
			"target":34962
		},
		{
			"buffer":0,
			"byteLength":648,
			"byteOffset":648,
			"target":34962
		},
		{
			"buffer":0,
			"byteLength":432,
			"byteOffset":1296,
			"target":34962
		},
		{
			"buffer":0,
			"byteLength":432,
			"byteOffset":1728,
			"target":34962
		},
		{
			"buffer":0,
			"byteLength":432,
			"byteOffset":2160,
			"target":34962
		},
		{
			"buffer":0,
			"byteLength":432,
			"byteOffset":2592,
			"target":34962
		},
		{
			"buffer":0,
			"byteLength":432,
			"byteOffset":3024,
			"target":34962
		},
		{
			"buffer":0,
			"byteLength":432,
			"byteOffset":3456,
			"target":34962
		},
		{
			"buffer":0,
			"byteLength":432,
			"byteOffset":3888,
			"target":34962
		},
		{
			"buffer":0,
			"byteLength":432,
			"byteOffset":4320,
			"target":34962
		},
		{
			"buffer":0,
			"byteLength":204,
			"byteOffset":4752,
			"target":34963
		}
	],
	"samplers":[
		{
			"magFilter":9729,
			"minFilter":9987
		}
	],
	"buffers":[
		{
			"byteLength":4956,
			"uri":"washing_machine.bin"
		}
	]
}
